<svg width="32" height="38" viewBox="0 0 32 38" fill="none" xmlns="http://www.w3.org/2000/svg">
<path d="M26.5783 20.1814C26.5344 15.4275 30.5706 13.1147 30.7552 13.007C28.4693 9.75756 24.9263 9.31358 23.6812 9.27818C20.7055 8.97286 17.819 11.0143 16.3032 11.0143C14.7571 11.0143 12.4228 9.30768 9.90699 9.35783C6.66955 9.40651 3.64088 11.234 1.97981 14.0719C-1.44824 19.8584 1.10842 28.3617 4.39276 33.0389C6.03568 35.3296 7.95545 37.8873 10.4682 37.7973C12.9266 37.6985 13.8449 36.2692 16.8115 36.2692C19.7509 36.2692 20.6132 37.7973 23.1759 37.7398C25.8143 37.6985 27.4754 35.4388 29.0608 33.1275C30.9594 30.502 31.7219 27.9163 31.7521 27.7835C31.6901 27.7629 26.6282 25.8793 26.5783 20.1814Z" fill="white"/>
<path d="M21.7372 6.20133C23.0594 4.58916 23.9641 2.39583 23.713 0.170059C21.7993 0.252659 19.406 1.46068 18.0278 3.03746C16.8085 4.42691 15.7192 6.70431 16.0006 8.84601C18.1503 9.00236 20.3575 7.78843 21.7372 6.20133Z" fill="white"/>
</svg>
