<svg width="202" height="60" viewBox="0 0 202 60" fill="none" xmlns="http://www.w3.org/2000/svg">
<path d="M200.862 53.0435C200.862 56.1877 198.291 58.7345 195.111 58.7345H6.90287C3.7243 58.7345 1.14424 56.1877 1.14424 53.0435V7.6594C1.14424 4.5167 3.7243 1.96094 6.90287 1.96094H195.109C198.291 1.96094 200.86 4.5167 200.86 7.6594L200.862 53.0435Z" fill="black"/>
<path d="M194.504 2.0295C197.967 2.0295 200.785 4.80804 200.785 8.22266V52.4727C200.785 55.8873 197.967 58.6658 194.504 58.6658H7.50227C4.03901 58.6658 1.2209 55.8873 1.2209 52.4727V8.22266C1.2209 4.80804 4.03901 2.0295 7.50227 2.0295H194.504ZM194.504 0.847662H7.50227C3.39011 0.847662 0.0222168 4.16826 0.0222168 8.22266V52.4727C0.0222168 56.5271 3.39011 59.8477 7.50227 59.8477H194.504C198.616 59.8477 201.984 56.5271 201.984 52.4727V8.22266C201.984 4.16826 198.616 0.847662 194.504 0.847662Z" fill="#A6A6A6"/>
<path d="M45.0941 30.0291C45.0507 25.2752 49.042 22.9624 49.2246 22.8547C46.9641 19.6053 43.4604 19.1613 42.2292 19.1259C39.2866 18.8206 36.4322 20.862 34.9332 20.862C33.4042 20.862 31.0959 19.1554 28.608 19.2056C25.4066 19.2543 22.4115 21.0818 20.7689 23.9197C17.379 29.7061 19.9072 38.2095 23.1551 42.8867C24.7797 45.1774 26.6782 47.735 29.163 47.6451C31.5941 47.5462 32.5021 46.117 35.4358 46.117C38.3426 46.117 39.1953 47.6451 41.7295 47.5875C44.3386 47.5462 45.9812 45.2865 47.549 42.9752C49.4265 40.3497 50.1805 37.764 50.2104 37.6313C50.1491 37.6106 45.1434 35.7271 45.0941 30.0291Z" fill="white"/>
<path d="M40.3068 16.0491C41.6143 14.4369 42.509 12.2436 42.2606 10.0178C40.3682 10.1004 38.0015 11.3084 36.6386 12.8852C35.4328 14.2747 34.3557 16.5521 34.634 18.6938C36.7598 18.8501 38.9425 17.6362 40.3068 16.0491Z" fill="white"/>
<path d="M80.2757 47.3158H76.8783L75.0173 41.55H68.5485L66.7757 47.3158H63.468L69.877 27.6865H73.8354L80.2757 47.3158ZM74.4562 39.1311L72.7732 34.0054C72.5952 33.4818 72.2616 32.2487 71.7694 30.3076H71.7096C71.5136 31.1424 71.1979 32.3755 70.7641 34.0054L69.111 39.1311H74.4562Z" fill="white"/>
<path d="M96.7573 40.0649C96.7573 42.4721 96.0975 44.3749 94.7781 45.7717C93.5962 47.0151 92.1286 47.6361 90.3768 47.6361C88.4858 47.6361 87.1275 46.9664 86.3002 45.6271H86.2403V53.0833H83.0508V37.8214C83.0508 36.3081 83.0104 34.7549 82.9326 33.1619H85.7377L85.9157 35.4054H85.9755C87.0392 33.715 88.6534 32.8713 90.8196 32.8713C92.5131 32.8713 93.9268 33.5307 95.0578 34.8508C96.1918 36.1724 96.7573 37.9099 96.7573 40.0649ZM93.508 40.18C93.508 38.8023 93.1938 37.6666 92.5625 36.7727C91.8728 35.8405 90.9468 35.3744 89.7859 35.3744C88.999 35.3744 88.2839 35.634 87.6451 36.1458C87.0048 36.6621 86.5859 37.3362 86.3899 38.171C86.2912 38.5604 86.2418 38.879 86.2418 39.1298V41.4898C86.2418 42.5193 86.562 43.3881 87.2023 44.0976C87.8426 44.807 88.6743 45.161 89.6976 45.161C90.8989 45.161 91.8339 44.7038 92.5026 43.7922C93.1728 42.8792 93.508 41.6756 93.508 40.18Z" fill="white"/>
<path d="M113.269 40.0649C113.269 42.4721 112.609 44.3749 111.288 45.7717C110.108 47.0151 108.64 47.6361 106.888 47.6361C104.997 47.6361 103.639 46.9664 102.813 45.6271H102.753V53.0833H99.5638V37.8214C99.5638 36.3081 99.5234 34.7549 99.4456 33.1619H102.251L102.429 35.4054H102.489C103.551 33.715 105.165 32.8713 107.333 32.8713C109.025 32.8713 110.438 33.5307 111.572 34.8508C112.702 36.1724 113.269 37.9099 113.269 40.0649ZM110.019 40.18C110.019 38.8023 109.704 37.6666 109.072 36.7727C108.383 35.8405 107.46 35.3744 106.297 35.3744C105.509 35.3744 104.795 35.634 104.155 36.1458C103.515 36.6621 103.097 37.3362 102.901 38.171C102.804 38.5604 102.753 38.879 102.753 39.1298V41.4898C102.753 42.5193 103.073 43.3881 103.711 44.0976C104.351 44.8056 105.183 45.161 106.209 45.161C107.41 45.161 108.345 44.7038 109.014 43.7922C109.684 42.8792 110.019 41.6756 110.019 40.18Z" fill="white"/>
<path d="M131.73 41.8114C131.73 43.4811 131.142 44.8396 129.961 45.8883C128.664 47.0344 126.859 47.6067 124.538 47.6067C122.396 47.6067 120.679 47.1996 119.378 46.3839L120.118 43.7628C121.518 44.5977 123.054 45.0166 124.728 45.0166C125.93 45.0166 126.865 44.7481 127.536 44.2142C128.205 43.6802 128.539 42.9634 128.539 42.0695C128.539 41.273 128.263 40.6019 127.711 40.0576C127.162 39.5133 126.245 39.0074 124.965 38.5398C121.479 37.2581 119.738 35.3804 119.738 32.9112C119.738 31.2976 120.348 29.9745 121.57 28.945C122.788 27.9139 124.413 27.3992 126.444 27.3992C128.256 27.3992 129.761 27.7104 130.962 28.3314L130.165 30.8949C129.043 30.2931 127.774 29.9922 126.354 29.9922C125.232 29.9922 124.356 30.2651 123.727 30.8079C123.196 31.2932 122.93 31.8846 122.93 32.5853C122.93 33.3611 123.234 34.0027 123.844 34.5072C124.375 34.9733 125.34 35.4777 126.74 36.022C128.453 36.702 129.711 37.497 130.521 38.4086C131.327 39.3172 131.73 40.4544 131.73 41.8114Z" fill="white"/>
<path d="M142.275 35.5217H138.759V42.3938C138.759 44.1416 139.379 45.0148 140.62 45.0148C141.19 45.0148 141.663 44.9662 142.037 44.8688L142.125 47.2568C141.497 47.4884 140.67 47.6049 139.645 47.6049C138.385 47.6049 137.401 47.2259 136.69 46.4692C135.983 45.711 135.627 44.4396 135.627 42.6534V35.5188H133.532V33.1588H135.627V30.5672L138.759 29.635V33.1588H142.275V35.5217Z" fill="white"/>
<path d="M158.137 40.1224C158.137 42.2981 157.506 44.0843 156.246 45.4811C154.925 46.9192 153.172 47.6361 150.986 47.6361C148.88 47.6361 147.203 46.9473 145.952 45.5696C144.701 44.192 144.076 42.4529 144.076 40.357C144.076 38.1636 144.719 36.3671 146.01 34.9703C147.299 33.572 149.037 32.8728 151.223 32.8728C153.329 32.8728 155.024 33.5616 156.303 34.9408C157.527 36.2786 158.137 38.0058 158.137 40.1224ZM154.828 40.2242C154.828 38.9188 154.545 37.7993 153.972 36.8656C153.304 35.7358 152.348 35.1723 151.109 35.1723C149.827 35.1723 148.853 35.7373 148.184 36.8656C147.611 37.8008 147.328 38.938 147.328 40.2832C147.328 41.5886 147.611 42.7081 148.184 43.6403C148.874 44.7702 149.837 45.3336 151.08 45.3336C152.298 45.3336 153.254 44.7584 153.944 43.6108C154.532 42.6594 154.828 41.5281 154.828 40.2242Z" fill="white"/>
<path d="M168.505 35.9275C168.189 35.87 167.852 35.8405 167.499 35.8405C166.377 35.8405 165.51 36.2579 164.899 37.0943C164.368 37.8318 164.102 38.764 164.102 39.8894V47.316H160.914L160.944 37.6194C160.944 35.988 160.903 34.5027 160.824 33.1634H163.602L163.719 35.8715H163.807C164.144 34.9408 164.675 34.1915 165.402 33.6295C166.112 33.1236 166.88 32.8713 167.707 32.8713C168.002 32.8713 168.268 32.892 168.505 32.9289V35.9275Z" fill="white"/>
<path d="M182.769 39.5693C182.769 40.1327 182.732 40.6076 182.652 40.9956H173.084C173.121 42.3939 173.583 43.4633 174.472 44.2008C175.278 44.8601 176.321 45.1905 177.602 45.1905C179.018 45.1905 180.311 44.9677 181.473 44.5208L181.973 46.7038C180.615 47.2879 179.011 47.5785 177.16 47.5785C174.934 47.5785 173.187 46.9324 171.915 45.6418C170.647 44.3512 170.011 42.6181 170.011 40.4439C170.011 38.3096 170.602 36.5322 171.785 35.1148C173.024 33.6014 174.698 32.8447 176.804 32.8447C178.873 32.8447 180.44 33.6014 181.503 35.1148C182.346 36.3169 182.769 37.8037 182.769 39.5693ZM179.728 38.7536C179.749 37.8214 179.541 37.016 179.108 36.336C178.556 35.4614 177.708 35.0248 176.567 35.0248C175.524 35.0248 174.676 35.4511 174.028 36.3066C173.497 36.9865 173.181 37.8022 173.084 38.7521H179.728V38.7536Z" fill="white"/>
<path d="M73.4016 15.611C73.4016 17.3471 72.8735 18.6539 71.8188 19.5315C70.8419 20.3413 69.4536 20.7469 67.6554 20.7469C66.7638 20.7469 66.0008 20.7086 65.362 20.6319V11.1462C66.1953 11.0134 67.0929 10.9456 68.0623 10.9456C69.7753 10.9456 71.0663 11.3128 71.937 12.0474C72.9124 12.8778 73.4016 14.0652 73.4016 15.611ZM71.7485 15.6538C71.7485 14.5283 71.4463 13.6655 70.8419 13.0637C70.2375 12.4633 69.3549 12.1624 68.1925 12.1624C67.6988 12.1624 67.2784 12.1949 66.9299 12.2627V19.474C67.1228 19.5035 67.4759 19.5168 67.989 19.5168C69.1888 19.5168 70.1149 19.1879 70.7671 18.53C71.4194 17.8722 71.7485 16.9134 71.7485 15.6538Z" fill="white"/>
<path d="M82.1668 17.1273C82.1668 18.1967 81.8571 19.0728 81.2377 19.7602C80.5885 20.4667 79.7283 20.8192 78.6541 20.8192C77.6189 20.8192 76.7946 20.4814 76.1797 19.8029C75.5664 19.1259 75.2597 18.2719 75.2597 17.2423C75.2597 16.1656 75.5753 15.2821 76.2096 14.5962C76.8439 13.9103 77.6967 13.5667 78.7708 13.5667C79.8061 13.5667 80.6378 13.9044 81.2677 14.5814C81.8661 15.2393 82.1668 16.0889 82.1668 17.1273ZM80.5406 17.1774C80.5406 16.5358 80.4 15.9856 80.1202 15.5269C79.7911 14.9723 79.3228 14.695 78.714 14.695C78.0841 14.695 77.6054 14.9723 77.2763 15.5269C76.995 15.9856 76.8559 16.5447 76.8559 17.2055C76.8559 17.8471 76.9965 18.3973 77.2763 18.856C77.6159 19.4106 78.0886 19.6879 78.699 19.6879C79.2974 19.6879 79.7672 19.4062 80.1053 18.8412C80.3955 18.3737 80.5406 17.8191 80.5406 17.1774Z" fill="white"/>
<path d="M93.9194 13.7083L91.7128 20.6614H90.2766L89.3626 17.6421C89.1307 16.8884 88.9422 16.1391 88.7956 15.3957H88.7671C88.631 16.1597 88.4425 16.9075 88.2002 17.6421L87.2292 20.6614H85.7766L83.7017 13.7083H85.3129L86.1102 17.0137C86.3032 17.7955 86.4618 18.5404 86.589 19.2454H86.6174C86.7341 18.6643 86.9271 17.9238 87.1993 17.0285L88.2002 13.7097H89.4778L90.4367 16.9577C90.6686 17.7498 90.8571 18.5123 91.0022 19.2469H91.0456C91.1518 18.5315 91.3119 17.7689 91.5243 16.9577L92.38 13.7097H93.9194V13.7083Z" fill="white"/>
<path d="M102.047 20.6614H100.479V16.6789C100.479 15.4517 100.007 14.8381 99.0582 14.8381C98.593 14.8381 98.2175 15.0063 97.9258 15.3441C97.637 15.6818 97.4904 16.0801 97.4904 16.5359V20.66H95.9226V15.6951C95.9226 15.0845 95.9032 14.4222 95.8658 13.7053H97.2436L97.3169 14.7924H97.3603C97.5428 14.4546 97.8151 14.1759 98.1726 13.9531C98.5975 13.6935 99.0732 13.5623 99.5938 13.5623C100.252 13.5623 100.8 13.7717 101.235 14.1921C101.776 14.7069 102.047 15.4753 102.047 16.496V20.6614Z" fill="white"/>
<path d="M106.371 20.6612H104.804V10.5176H106.371V20.6612Z" fill="white"/>
<path d="M115.601 17.1273C115.601 18.1967 115.291 19.0728 114.672 19.7602C114.023 20.4667 113.161 20.8192 112.088 20.8192C111.052 20.8192 110.227 20.4814 109.614 19.8029C109.001 19.1259 108.694 18.2719 108.694 17.2423C108.694 16.1656 109.01 15.2821 109.644 14.5962C110.278 13.9103 111.131 13.5667 112.204 13.5667C113.24 13.5667 114.071 13.9044 114.702 14.5814C115.3 15.2393 115.601 16.0889 115.601 17.1273ZM113.973 17.1774C113.973 16.5358 113.833 15.9856 113.553 15.5269C113.225 14.9723 112.756 14.695 112.148 14.695C111.517 14.695 111.038 14.9723 110.711 15.5269C110.429 15.9856 110.29 16.5447 110.29 17.2055C110.29 17.8471 110.431 18.3973 110.711 18.856C111.05 19.4106 111.523 19.6879 112.133 19.6879C112.732 19.6879 113.2 19.4062 113.538 18.8412C113.83 18.3737 113.973 17.8191 113.973 17.1774Z" fill="white"/>
<path d="M123.189 20.6614H121.781L121.664 19.8605H121.621C121.139 20.4991 120.453 20.8192 119.561 20.8192C118.895 20.8192 118.357 20.6083 117.951 20.1894C117.583 19.8088 117.399 19.3354 117.399 18.7734C117.399 17.9238 117.758 17.2763 118.481 16.8279C119.202 16.3795 120.216 16.1597 121.522 16.17V16.0402C121.522 15.1243 121.035 14.667 120.058 14.667C119.362 14.667 118.749 14.8396 118.219 15.1818L117.9 14.167C118.556 13.7672 119.365 13.5667 120.32 13.5667C122.163 13.5667 123.087 14.5254 123.087 16.4429V19.0035C123.087 19.6982 123.122 20.2513 123.189 20.6614ZM121.561 18.2719V17.1996C119.832 17.1701 118.967 17.6377 118.967 18.6008C118.967 18.9637 119.066 19.2351 119.268 19.4165C119.47 19.5979 119.727 19.6879 120.034 19.6879C120.378 19.6879 120.7 19.5802 120.993 19.3663C121.287 19.151 121.468 18.8781 121.536 18.5433C121.552 18.4681 121.561 18.3766 121.561 18.2719Z" fill="white"/>
<path d="M132.098 20.6612H130.706L130.633 19.5446H130.59C130.145 20.3942 129.388 20.819 128.325 20.819C127.475 20.819 126.767 20.4901 126.206 19.8322C125.645 19.1744 125.366 18.3203 125.366 17.2716C125.366 16.1462 125.669 15.2346 126.28 14.5384C126.871 13.8894 127.595 13.5649 128.456 13.5649C129.403 13.5649 130.066 13.8791 130.443 14.5089H130.473V10.5176H132.042V18.7879C132.042 19.4649 132.06 20.0889 132.098 20.6612ZM130.473 17.7289V16.5695C130.473 16.3689 130.458 16.2067 130.43 16.0828C130.341 15.7111 130.151 15.3984 129.863 15.1461C129.571 14.8939 129.219 14.7671 128.814 14.7671C128.229 14.7671 127.771 14.9957 127.435 15.4544C127.101 15.9131 126.932 16.4987 126.932 17.2141C126.932 17.9014 127.092 18.459 127.414 18.8882C127.753 19.3455 128.211 19.5741 128.784 19.5741C129.299 19.5741 129.71 19.3838 130.023 19.0018C130.325 18.6493 130.473 18.2245 130.473 17.7289Z" fill="white"/>
<path d="M145.506 17.1273C145.506 18.1967 145.197 19.0728 144.577 19.7602C143.928 20.4667 143.069 20.8192 141.994 20.8192C140.96 20.8192 140.136 20.4814 139.519 19.8029C138.906 19.1259 138.599 18.2719 138.599 17.2423C138.599 16.1656 138.915 15.2821 139.549 14.5962C140.184 13.9103 141.036 13.5667 142.112 13.5667C143.146 13.5667 143.979 13.9044 144.607 14.5814C145.206 15.2393 145.506 16.0889 145.506 17.1273ZM143.882 17.1774C143.882 16.5358 143.741 15.9856 143.461 15.5269C143.131 14.9723 142.664 14.695 142.054 14.695C141.425 14.695 140.947 14.9723 140.616 15.5269C140.335 15.9856 140.196 16.5447 140.196 17.2055C140.196 17.8471 140.336 18.3973 140.616 18.856C140.956 19.4106 141.428 19.6879 142.039 19.6879C142.637 19.6879 143.108 19.4062 143.446 18.8412C143.735 18.3737 143.882 17.8191 143.882 17.1774Z" fill="white"/>
<path d="M153.936 20.6614H152.37V16.6789C152.37 15.4517 151.897 14.8381 150.947 14.8381C150.482 14.8381 150.107 15.0063 149.816 15.3441C149.526 15.6818 149.381 16.0801 149.381 16.5359V20.66H147.812V15.6951C147.812 15.0845 147.794 14.4222 147.756 13.7053H149.133L149.206 14.7924H149.249C149.433 14.4546 149.706 14.1759 150.062 13.9531C150.488 13.6935 150.962 13.5623 151.484 13.5623C152.141 13.5623 152.689 13.7717 153.124 14.1921C153.667 14.7069 153.936 15.4753 153.936 16.496V20.6614Z" fill="white"/>
<path d="M164.488 14.8661H162.761V18.2438C162.761 19.1023 163.068 19.5315 163.675 19.5315C163.957 19.5315 164.19 19.5079 164.374 19.4592L164.414 20.6319C164.105 20.7469 163.698 20.8044 163.197 20.8044C162.577 20.8044 162.096 20.6186 161.747 20.2469C161.397 19.8752 161.223 19.2498 161.223 18.3722V14.8661H160.193V13.7082H161.223V12.4338L162.76 11.9766V13.7067H164.486V14.8661H164.488Z" fill="white"/>
<path d="M172.788 20.6612H171.218V16.7082C171.218 15.4618 170.746 14.8379 169.799 14.8379C169.072 14.8379 168.575 15.1992 168.303 15.922C168.256 16.0739 168.229 16.2598 168.229 16.4781V20.6597H166.663V10.5176H168.229V14.7081H168.259C168.753 13.9455 169.461 13.5649 170.378 13.5649C171.027 13.5649 171.564 13.7744 171.99 14.1948C172.521 14.7184 172.788 15.4972 172.788 16.5267V20.6612Z" fill="white"/>
<path d="M181.349 16.856C181.349 17.1333 181.328 17.3663 181.291 17.5566H176.589C176.61 18.244 176.834 18.7676 177.27 19.1304C177.668 19.4549 178.181 19.6172 178.809 19.6172C179.505 19.6172 180.139 19.508 180.711 19.2883L180.956 20.3621C180.287 20.6482 179.5 20.7913 178.589 20.7913C177.497 20.7913 176.637 20.4742 176.015 19.8399C175.389 19.2057 175.08 18.3546 175.08 17.2867C175.08 16.238 175.368 15.3648 175.95 14.6686C176.558 13.9252 177.379 13.5535 178.416 13.5535C179.43 13.5535 180.2 13.9252 180.721 14.6686C181.141 15.2586 181.349 15.9887 181.349 16.856ZM179.853 16.4563C179.865 15.9975 179.762 15.6022 179.55 15.2689C179.277 14.8397 178.863 14.6243 178.302 14.6243C177.79 14.6243 177.373 14.8338 177.054 15.2541C176.794 15.589 176.64 15.9887 176.589 16.4563H179.853Z" fill="white"/>
</svg>
