<svg width="35" height="35" viewBox="0 0 35 35" fill="none" xmlns="http://www.w3.org/2000/svg">
<path d="M17.5785 0.978455C8.4118 0.978455 0.911804 8.46179 0.911804 17.6785C0.911804 26.0118 7.0118 32.9285 14.9785 34.1785V22.5118H10.7451V17.6785H14.9785L14.9785 13.9951C14.9785 9.81179 17.4618 7.51179 21.2785 7.51179C23.0951 7.51179 24.9951 7.82845 24.9951 7.82845V11.9451H22.8951C20.8285 11.9451 20.1785 13.2285 20.1785 14.5452V17.6785H24.8118L24.0618 22.5118H20.1785L20.1785 34.1785C24.1058 33.5582 27.6821 31.5543 30.2616 28.5285C32.8411 25.5028 34.2541 21.6545 34.2451 17.6785C34.2451 8.46179 26.7451 0.978455 17.5785 0.978455Z" fill="white"/>
</svg>
