<svg width="35" height="39" viewBox="0 0 35 39" fill="none" xmlns="http://www.w3.org/2000/svg">
<path d="M0.7646 1.11964C0.32082 1.5732 0.0639954 2.27935 0.0639954 3.19385V35.8135C0.0639954 36.728 0.32082 37.4341 0.7646 37.8877L0.87413 37.9873L19.596 19.7157V19.2843L0.87413 1.0127L0.7646 1.11964Z" fill="white"/>
<path d="M25.8296 25.8093L19.5959 19.7157V19.2842L25.8372 13.1907L25.9769 13.2699L33.3682 17.376C35.4776 18.5412 35.4776 20.4587 33.3682 21.6313L25.9769 25.73L25.8296 25.8093V25.8093Z" fill="white"/>
<path d="M25.9769 25.73L19.5959 19.5L0.764557 37.8877C1.46516 38.6068 2.60766 38.6934 3.9069 37.9744L25.9769 25.73" fill="white"/>
<path d="M25.9769 13.27L3.9069 1.02563C2.60766 0.313943 1.46516 0.400597 0.764557 1.11966L19.5959 19.5L25.9769 13.27Z" fill="white"/>
</svg>
