<svg width="203" height="59" viewBox="0 0 203 59" fill="none" xmlns="http://www.w3.org/2000/svg">
<path d="M194.748 59H8.0031C3.89659 59 0.533325 55.6794 0.533325 51.625V7.37501C0.533325 3.3206 3.89659 5.4802e-06 8.0031 5.4802e-06H194.748C198.854 5.4802e-06 202.217 3.3206 202.217 7.37501V51.625C202.217 55.6794 198.854 59 194.748 59Z" fill="black"/>
<path d="M194.748 1.18185C198.206 1.18185 201.02 3.96038 201.02 7.37501V51.625C201.02 55.0396 198.206 57.8182 194.748 57.8182H8.0031C4.54459 57.8182 1.73036 55.0396 1.73036 51.625V7.37501C1.73036 3.96038 4.54459 1.18185 8.0031 1.18185H194.748ZM194.748 5.4802e-06H8.0031C3.89659 5.4802e-06 0.533325 3.3206 0.533325 7.37501V51.625C0.533325 55.6794 3.89659 59 8.0031 59H194.748C198.854 59 202.217 55.6794 202.217 51.625V7.37501C202.217 3.3206 198.854 5.4802e-06 194.748 5.4802e-06Z" fill="#A6A6A6"/>
<path d="M71.3729 15.1096C71.3729 16.3413 70.9995 17.3277 70.2637 18.0633C69.4177 18.9354 68.3159 19.3742 66.9658 19.3742C65.6754 19.3742 64.5736 18.928 63.6697 18.0486C62.764 17.1562 62.3121 16.061 62.3121 14.7501C62.3121 13.4392 62.764 12.344 63.6697 11.459C64.5736 10.5722 65.6754 10.126 66.9658 10.126C67.6082 10.126 68.2207 10.2569 68.8052 10.5003C69.3878 10.7455 69.8622 11.0774 70.2058 11.4867L69.4252 12.2647C68.8257 11.5659 68.0097 11.2212 66.9658 11.2212C66.0246 11.2212 65.2085 11.5457 64.5157 12.2002C63.8303 12.8566 63.4867 13.7065 63.4867 14.7501C63.4867 15.7937 63.8303 16.651 64.5157 17.3074C65.2085 17.9545 66.0246 18.2864 66.9658 18.2864C67.9649 18.2864 68.8052 17.9545 69.4682 17.3C69.9051 16.8667 70.1535 16.2694 70.2189 15.506H66.9658V14.4404H71.3057C71.358 14.6708 71.3729 14.8939 71.3729 15.1096Z" fill="white" stroke="white" stroke-width="0.16" stroke-miterlimit="10"/>
<path d="M78.2582 11.4146H74.1815V14.2171H77.8567V15.2828H74.1815V18.0853H78.2582V19.1712H73.0275V10.3286H78.2582V11.4146Z" fill="white" stroke="white" stroke-width="0.16" stroke-miterlimit="10"/>
<path d="M83.1172 19.1712H81.9632V11.4146H79.4626V10.3286H85.6196V11.4146H83.1172V19.1712Z" fill="white" stroke="white" stroke-width="0.16" stroke-miterlimit="10"/>
<path d="M90.0754 19.1712V10.3286H91.2276V19.1712H90.0754Z" fill="white" stroke="white" stroke-width="0.16" stroke-miterlimit="10"/>
<path d="M96.335 19.1712H95.1903V11.4146H92.6804V10.3286H98.8448V11.4146H96.335V19.1712Z" fill="white" stroke="white" stroke-width="0.16" stroke-miterlimit="10"/>
<path d="M110.501 18.0338C109.618 18.928 108.524 19.3742 107.219 19.3742C105.906 19.3742 104.811 18.928 103.928 18.0338C103.047 17.1414 102.608 16.0463 102.608 14.7501C102.608 13.4539 103.047 12.3588 103.928 11.4664C104.811 10.5722 105.906 10.126 107.219 10.126C108.516 10.126 109.611 10.5722 110.494 11.4738C111.383 12.3735 111.822 13.4613 111.822 14.7501C111.822 16.0463 111.383 17.1414 110.501 18.0338ZM104.781 17.2926C105.446 17.9545 106.255 18.2864 107.219 18.2864C108.175 18.2864 108.991 17.9545 109.648 17.2926C110.311 16.6307 110.647 15.7808 110.647 14.7501C110.647 13.7194 110.311 12.8695 109.648 12.2076C108.991 11.5457 108.175 11.2138 107.219 11.2138C106.255 11.2138 105.446 11.5457 104.781 12.2076C104.119 12.8695 103.782 13.7194 103.782 14.7501C103.782 15.7808 104.119 16.6307 104.781 17.2926Z" fill="white" stroke="white" stroke-width="0.16" stroke-miterlimit="10"/>
<path d="M113.441 19.1712V10.3286H114.841L119.196 17.2058H119.247L119.196 15.5059V10.3286H120.348V19.1712H119.146L114.586 11.9548H114.535L114.586 13.6621V19.1712H113.441Z" fill="white" stroke="white" stroke-width="0.16" stroke-miterlimit="10"/>
<path d="M102.324 32.0848C98.815 32.0848 95.9485 34.7214 95.9485 38.3591C95.9485 41.9673 98.815 44.6315 102.324 44.6315C105.84 44.6315 108.707 41.9673 108.707 38.3591C108.707 34.7214 105.84 32.0848 102.324 32.0848ZM102.324 42.1609C100.399 42.1609 98.7422 40.5919 98.7422 38.3591C98.7422 36.0968 100.399 34.5554 102.324 34.5554C104.249 34.5554 105.913 36.0968 105.913 38.3591C105.913 40.5919 104.249 42.1609 102.324 42.1609ZM88.4134 32.0848C84.897 32.0848 82.0379 34.7214 82.0379 38.3591C82.0379 41.9673 84.897 44.6315 88.4134 44.6315C91.9279 44.6315 94.7888 41.9673 94.7888 38.3591C94.7888 34.7214 91.9279 32.0848 88.4134 32.0848ZM88.4134 42.1609C86.4862 42.1609 84.8241 40.5919 84.8241 38.3591C84.8241 36.0968 86.4862 34.5554 88.4134 34.5554C90.3387 34.5554 91.9951 36.0968 91.9951 38.3591C91.9951 40.5919 90.3387 42.1609 88.4134 42.1609ZM71.8603 34.0078V36.6739H78.3086C78.12 38.1636 77.6158 39.2588 76.8427 40.0221C75.9015 40.944 74.4355 41.9673 71.8603 41.9673C67.892 41.9673 64.7846 38.8053 64.7846 34.8873C64.7846 30.9693 67.892 27.8073 71.8603 27.8073C74.006 27.8073 75.5672 28.6351 76.7194 29.7082L78.6224 27.8294C77.0108 26.3102 74.8669 25.1431 71.8603 25.1431C66.4186 25.1431 61.8452 29.5146 61.8452 34.8873C61.8452 40.26 66.4186 44.6315 71.8603 44.6315C74.8016 44.6315 77.0107 43.6801 78.7475 41.8954C80.5271 40.1383 81.0818 37.6677 81.0818 35.6727C81.0818 35.0532 81.0295 34.4835 80.9361 34.0078H71.8603ZM139.548 36.0747C139.023 34.6716 137.404 32.0848 134.106 32.0848C130.838 32.0848 128.117 34.6273 128.117 38.3591C128.117 41.8733 130.81 44.6315 134.42 44.6315C137.339 44.6315 139.023 42.8744 139.716 41.8511L137.55 40.4259C136.827 41.4695 135.843 42.1609 134.42 42.1609C133.006 42.1609 131.992 41.5211 131.342 40.26L139.841 36.7882L139.548 36.0747ZM130.883 38.1636C130.81 35.7446 132.786 34.5056 134.201 34.5056C135.31 34.5056 136.252 35.0532 136.565 35.8368L130.883 38.1636ZM123.975 44.2498H126.769V25.8124H123.975V44.2498ZM119.4 33.4824H119.306C118.679 32.7485 117.482 32.0848 115.966 32.0848C112.783 32.0848 109.874 34.843 109.874 38.3794C109.874 41.8954 112.783 44.6315 115.966 44.6315C117.482 44.6315 118.679 43.9622 119.306 43.2063H119.4V44.106C119.4 46.5048 118.102 47.7935 116.009 47.7935C114.302 47.7935 113.243 46.5767 112.806 45.5534L110.376 46.5545C111.077 48.2176 112.931 50.2642 116.009 50.2642C119.284 50.2642 122.048 48.3614 122.048 43.7318V32.4664H119.4V33.4824ZM116.205 42.1609C114.279 42.1609 112.668 40.5697 112.668 38.3794C112.668 36.1687 114.279 34.5554 116.205 34.5554C118.102 34.5554 119.598 36.1687 119.598 38.3794C119.598 40.5697 118.102 42.1609 116.205 42.1609ZM152.627 25.8124H145.946V44.2498H148.732V37.2639H152.627C155.722 37.2639 158.756 35.0532 158.756 31.5372C158.756 28.023 155.714 25.8124 152.627 25.8124ZM152.7 34.6992H148.732V28.377H152.7C154.78 28.377 155.968 30.0825 155.968 31.5372C155.968 32.9643 154.78 34.6992 152.7 34.6992ZM169.924 32.0498C167.91 32.0498 165.817 32.9274 164.956 34.8725L167.429 35.8958C167.961 34.8725 168.939 34.5407 169.974 34.5407C171.419 34.5407 172.885 35.398 172.908 36.9117V37.1053C172.403 36.8177 171.324 36.3918 169.996 36.3918C167.333 36.3918 164.62 37.8391 164.62 40.5402C164.62 43.0109 166.801 44.602 169.253 44.602C171.128 44.602 172.163 43.7668 172.812 42.7951H172.908V44.2203H175.599V37.1477C175.599 33.8788 173.126 32.0498 169.924 32.0498ZM169.587 42.1535C168.676 42.1535 167.406 41.7073 167.406 40.5919C167.406 39.1648 168.99 38.6172 170.361 38.6172C171.587 38.6172 172.163 38.8845 172.908 39.2367C172.689 40.944 171.201 42.1535 169.587 42.1535ZM185.403 32.4535L182.2 40.4462H182.105L178.794 32.4535H175.789L180.764 43.623L177.926 49.8383H180.837L188.503 32.4535H185.403ZM160.288 44.2498H163.081V25.8124H160.288V44.2498Z" fill="white"/>
<path d="M16.1228 11.1194C15.6839 11.573 15.4299 12.2791 15.4299 13.1936V45.8133C15.4299 46.7278 15.6839 47.4339 16.1228 47.8875L16.2311 47.9871L34.7449 29.7155V29.2841L16.2311 11.0125L16.1228 11.1194Z" fill="url(#paint0_linear_5_1982)"/>
<path d="M40.9093 35.8093L34.7449 29.7157V29.2843L40.9168 23.1907L41.055 23.27L48.3641 27.376C50.4501 28.5413 50.4501 30.4588 48.3641 31.6314L41.055 35.73L40.9093 35.8093Z" fill="url(#paint1_linear_5_1982)"/>
<path d="M41.055 35.7299L34.7449 29.4999L16.1227 47.8876C16.8156 48.6067 17.9454 48.6933 19.2302 47.9742L41.055 35.7299Z" fill="url(#paint2_linear_5_1982)"/>
<path d="M41.055 23.27L19.2302 11.0256C17.9454 10.3139 16.8156 10.4006 16.1227 11.1197L34.7449 29.5L41.055 23.27Z" fill="url(#paint3_linear_5_1982)"/>
<defs>
<linearGradient id="paint0_linear_5_1982" x1="33.1011" y1="46.153" x2="8.34907" y2="21.0829" gradientUnits="userSpaceOnUse">
<stop stop-color="#00A0FF"/>
<stop offset="0.0066" stop-color="#00A1FF"/>
<stop offset="0.2601" stop-color="#00BEFF"/>
<stop offset="0.5122" stop-color="#00D2FF"/>
<stop offset="0.7604" stop-color="#00DFFF"/>
<stop offset="1" stop-color="#00E3FF"/>
</linearGradient>
<linearGradient id="paint1_linear_5_1982" x1="51.0804" y1="29.4979" x2="14.9313" y2="29.4979" gradientUnits="userSpaceOnUse">
<stop stop-color="#FFE000"/>
<stop offset="0.4087" stop-color="#FFBD00"/>
<stop offset="0.7754" stop-color="#FFA500"/>
<stop offset="1" stop-color="#FF9C00"/>
</linearGradient>
<linearGradient id="paint2_linear_5_1982" x1="37.6237" y1="26.1131" x2="4.05798" y2="-7.88398" gradientUnits="userSpaceOnUse">
<stop stop-color="#FF3A44"/>
<stop offset="1" stop-color="#C31162"/>
</linearGradient>
<linearGradient id="paint3_linear_5_1982" x1="11.4352" y1="58.7401" x2="26.4238" y2="43.559" gradientUnits="userSpaceOnUse">
<stop stop-color="#32A071"/>
<stop offset="0.0685" stop-color="#2DA771"/>
<stop offset="0.4762" stop-color="#15CF74"/>
<stop offset="0.8009" stop-color="#06E775"/>
<stop offset="1" stop-color="#00F076"/>
</linearGradient>
</defs>
</svg>
