<svg width="34" height="34" viewBox="0 0 34 34" fill="none" xmlns="http://www.w3.org/2000/svg">
<path d="M27.1066 0.440125H7.10661C3.43994 0.440125 0.439941 3.44012 0.439941 7.10679V27.1068C0.439941 30.7735 3.43994 33.7735 7.10661 33.7735H27.1066C30.7733 33.7735 33.7733 30.7735 33.7733 27.1068V7.10679C33.7733 3.44012 30.7733 0.440125 27.1066 0.440125ZM17.1066 25.4401C12.5233 25.4401 8.77327 21.6901 8.77327 17.1068C8.77327 12.5235 12.5233 8.77346 17.1066 8.77346C21.6899 8.77346 25.4399 12.5235 25.4399 17.1068C25.4399 21.6901 21.6899 25.4401 17.1066 25.4401ZM26.2733 9.60679C25.3566 9.60679 24.6066 8.85679 24.6066 7.94012C24.6066 7.02346 25.3566 6.27346 26.2733 6.27346C27.1899 6.27346 27.9399 7.02346 27.9399 7.94012C27.9399 8.85679 27.1899 9.60679 26.2733 9.60679Z" fill="white"/>
</svg>
