<svg width="34" height="34" viewBox="0 0 34 34" fill="none" xmlns="http://www.w3.org/2000/svg">
<path d="M32.1009 0.434387H2.10087C1.65884 0.434387 1.23492 0.609982 0.922359 0.922542C0.609799 1.2351 0.434204 1.65903 0.434204 2.10105V32.1011C0.434204 32.5431 0.609799 32.967 0.922359 33.2796C1.23492 33.5921 1.65884 33.7677 2.10087 33.7677H32.1009C32.5429 33.7677 32.9668 33.5921 33.2794 33.2796C33.5919 32.967 33.7675 32.5431 33.7675 32.1011V2.10105C33.7675 1.65903 33.5919 1.2351 33.2794 0.922542C32.9668 0.609982 32.5429 0.434387 32.1009 0.434387ZM26.6325 14.9761C26.4509 14.9944 26.2675 15.0027 26.0859 15.0044C25.097 15.0057 24.1234 14.7606 23.2531 14.2912C22.3827 13.8218 21.6431 13.143 21.1009 12.3161V21.4711C21.1012 22.8098 20.7045 24.1187 19.9609 25.232C19.2173 26.3453 18.1603 27.213 16.9234 27.7255C15.6866 28.238 14.3256 28.3722 13.0125 28.1111C11.6994 27.85 10.4933 27.2053 9.5466 26.2587C8.59993 25.312 7.95528 24.1058 7.69417 22.7927C7.43307 21.4797 7.56725 20.1186 8.07973 18.8818C8.59222 17.645 9.45999 16.5879 10.5733 15.8444C11.6866 15.1008 12.9954 14.7041 14.3342 14.7044C14.4759 14.7044 14.6125 14.7177 14.7525 14.7261V18.0594C14.2862 18.0029 13.8133 18.0424 13.3628 18.1754C12.9123 18.3084 12.4938 18.5321 12.133 18.8328C11.7721 19.1335 11.4765 19.5048 11.2645 19.9239C11.0524 20.343 10.9282 20.801 10.8997 21.2698C10.8711 21.7387 10.9387 22.2084 11.0983 22.6502C11.258 23.0919 11.5062 23.4964 11.8279 23.8386C12.1496 24.1809 12.5379 24.4538 12.9689 24.6405C13.3999 24.8272 13.8645 24.9238 14.3342 24.9244C15.2611 24.9412 16.1577 24.5935 16.8309 23.9561C17.5041 23.3187 17.9003 22.4425 17.9342 21.5161L17.9675 5.96439H21.1575C21.3032 7.35014 21.9314 8.64059 22.9322 9.61005C23.933 10.5795 25.2428 11.1663 26.6325 11.2677V14.9761Z" fill="white"/>
</svg>
